<svg xmlns="http://www.w3.org/2000/svg" viewBox="0 0 16 16">
  <rect width="16" height="16" rx="4" fill="#111214"/>
  <path d="M3 11.2a5.4 5.4 0 0 1 10 0" fill="none" stroke="#1f1f1f" stroke-width="3" stroke-linecap="round"/>
  <path d="M3 11.2a5.4 5.4 0 0 1 1.3-3.5" fill="none" stroke="#55d84c" stroke-width="3" stroke-linecap="round"/>
  <path d="M4.3 7.7A5.4 5.4 0 0 1 8 5.8" fill="none" stroke="#f8d232" stroke-width="3" stroke-linecap="round"/>
  <path d="M8 5.8a5.4 5.4 0 0 1 4.9 5.4" fill="none" stroke="#f2553f" stroke-width="3" stroke-linecap="round"/>
  <path d="M7.8 9.5 11.7 6" stroke="#f4f6f8" stroke-width="1.6" stroke-linecap="round"/>
  <circle cx="7.8" cy="9.5" r="1.4" fill="#15181b" stroke="#8d98a6" stroke-width=".5"/>
  <path d="M8 11.1 8.6 12.4 10 13 8.6 13.6 8 15 7.4 13.6 6 13 7.4 12.4Z" fill="#f7fbff"/>
</svg>
