<svg xmlns="http://www.w3.org/2000/svg" viewBox="0 0 32 32">
  <rect x="1" y="1" width="30" height="30" rx="7" fill="#111214" stroke="#50545a" stroke-width="1"/>
  <path d="M7 22a11 11 0 0 1 18 0" fill="none" stroke="#202020" stroke-width="5" stroke-linecap="round"/>
  <path d="M7 22a11 11 0 0 1 2.7-7.1" fill="none" stroke="#58d94d" stroke-width="5" stroke-linecap="round"/>
  <path d="M9.7 14.9A11 11 0 0 1 16 11" fill="none" stroke="#f8d234" stroke-width="5" stroke-linecap="round"/>
  <path d="M16 11a11 11 0 0 1 9 11" fill="none" stroke="#f2553f" stroke-width="5" stroke-linecap="round"/>
  <path d="M15.5 18.9 23 12" stroke="#f4f6f8" stroke-width="3.2" stroke-linecap="round"/>
  <circle cx="15.5" cy="18.9" r="2.8" fill="#15181b" stroke="#8d98a6" stroke-width="1"/>
  <path d="M16 21.2 17.3 24 20 25.2 17.3 26.5 16 29.2 14.7 26.5 12 25.2 14.7 24Z" fill="#f7fbff"/>
  <path d="M10 26.7 13 29.2M22 26.7 19 29.2" stroke="#7aa9ff" stroke-width="1.2" stroke-linecap="round"/>
  <circle cx="9.4" cy="26.2" r="1.3" fill="#a9bacd"/>
  <circle cx="22.6" cy="26.2" r="1.3" fill="#a9bacd"/>
</svg>
