<svg xmlns="http://www.w3.org/2000/svg" viewBox="0 0 48 48">
  <rect x="1.5" y="1.5" width="45" height="45" rx="11" fill="#111214" stroke="#555a60" stroke-width="1.5"/>
  <path d="M10 33a16 16 0 0 1 28 0" fill="none" stroke="#202020" stroke-width="7" stroke-linecap="round"/>
  <path d="M10 33a16 16 0 0 1 4-10.5" fill="none" stroke="#58d94d" stroke-width="7" stroke-linecap="round"/>
  <path d="M14 22.5A16 16 0 0 1 24 17" fill="none" stroke="#f8d234" stroke-width="7" stroke-linecap="round"/>
  <path d="M24 17a16 16 0 0 1 14 16" fill="none" stroke="#f2553f" stroke-width="7" stroke-linecap="round"/>
  <path d="M23.4 28.4 34.8 18.3" stroke="#f4f6f8" stroke-width="4.6" stroke-linecap="round"/>
  <circle cx="23.4" cy="28.4" r="4.2" fill="#15181b" stroke="#8d98a6" stroke-width="1.4"/>
  <path d="M24 31.8 26 36 30.2 38 26 40 24 44.2 22 40 17.8 38 22 36Z" fill="#f7fbff"/>
  <path d="M15 40.3 20 44M33 40.3 28 44" stroke="#7aa9ff" stroke-width="1.8" stroke-linecap="round"/>
  <circle cx="14.1" cy="39.6" r="2" fill="#a9bacd"/>
  <circle cx="33.9" cy="39.6" r="2" fill="#a9bacd"/>
</svg>
